<svg width="98" height="98" viewBox="0 0 98 98" fill="none" xmlns="http://www.w3.org/2000/svg">
<path fill-rule="evenodd" clip-rule="evenodd" d="M97.517 48.7585C97.517 75.6871 75.6871 97.517 48.7585 97.517C39.5659 97.517 30.9675 94.9732 23.6288 90.5509C21.6004 88.9868 19.1026 86.2259 20.8803 82.7251L32.7607 62.729L38.5282 67.1849C42.3282 64.4745 49.7312 62.2893 48.944 75.2319L60.4617 61.9799C61.9718 58.3691 64.1568 50.2415 60.8153 46.6176L65.8583 40.09C69.6406 35.1944 76.1989 23.0622 72.174 13.6984C67.5552 13.6046 56.3004 16.028 48.2316 26.472L42.5582 33.8155C40.0014 32.7088 33.3065 31.8797 26.9815 37.4168L17.6967 51.0909C22.2978 48.9995 30.8226 47.6809 28.1125 59.1379L32.0976 62.2167L24.4825 69.5788L24.5 69.5C20 73 6 72.3 2 61.5C1.69091 60.6655 1.39775 59.8992 1.11982 59.1964C0.386406 55.8336 0 52.3412 0 48.7585C0 21.8299 21.8299 0 48.7585 0C75.6871 0 97.517 21.8299 97.517 48.7585Z" fill="#F82733"/>
</svg>
