<svg width="194" height="251" viewBox="0 0 194 251" fill="none" xmlns="http://www.w3.org/2000/svg">
<path d="M120.013 10.6082C132.623 0.520677 156.901 -7.09398 177.65 10.618C187.999 19.4521 193.066 30.2006 193.825 41.4022C194.584 52.593 191.042 64.198 184.247 74.7684C178.754 83.3123 169.995 87.7823 161.333 89.909C153.243 91.8951 145.191 91.8501 139.84 91.1492C143.404 96.8482 148.06 107.205 152.488 117.983C157.175 129.392 161.628 141.325 164.297 148.831L164.491 149.376L163.924 149.489C157.015 150.871 149.537 154.706 142.973 158.968C136.669 163.061 131.249 167.524 128.045 170.511L132.931 175.397C144.347 170.009 153.015 169.746 159.477 173.078C165.984 176.433 170.103 183.357 172.556 191.924C177.463 209.056 175.822 233.147 172.818 250.086L172.745 250.499H40.8162L40.8064 250.498C34.3555 250.247 24.5987 248.941 16.2879 245.829C8.0215 242.734 0.953806 237.758 0.327906 230.039C-1.18288 211.406 2.36419 200.806 14.3689 173.796C23.9395 152.262 18.2258 142.561 14.574 140.43L14.2156 140.221L14.3553 139.83L16.8553 132.83L17.0291 132.344L17.5095 132.533C24.303 135.209 27.8399 140.913 29.5076 146.877C31.1731 152.833 30.9953 159.11 30.3191 163.083C29.9692 166.343 27.6861 178.307 21.3064 200.636C18.1435 211.706 20.4693 218.763 24.5408 223.12C28.4779 227.333 34.1271 229.108 38.3318 229.461C38.6533 195.907 50.4514 179.77 65.2781 173.377C79.9612 167.045 97.427 170.361 109.155 175.383L112.664 170.557C99.5401 158.02 79.2583 150.286 70.6961 147.981L70.6863 147.978L70.6775 147.975C52.0436 142.165 40.0323 136.02 32.5847 130.679C28.8611 128.01 26.2701 125.536 24.5633 123.398C22.8638 121.27 22.0135 119.441 21.8299 118.064L21.8162 117.957L21.8474 117.852C30.4843 89.5313 46.1104 73.3811 62.1638 64.7205C77.8186 56.2752 93.8538 54.9669 104.158 56.3963C101.605 46.1116 102.389 37.2432 105.361 29.6902C108.4 21.9656 113.713 15.6487 120.013 10.6082ZM80.9998 84.4988C72.9917 84.4988 66.4998 90.9907 66.4998 98.9988C66.4999 107.007 72.9917 113.499 80.9998 113.499C89.0078 113.499 95.4996 107.007 95.4998 98.9988C95.4998 90.9907 89.0079 84.4988 80.9998 84.4988Z" fill="white"/>
</svg>
